<svg xmlns="http://www.w3.org/2000/svg" width="37" height="38" viewBox="0 0 37 38">
    <g fill="none" fill-rule="evenodd">
        <g fill="#4BB75F">
            <g>
                <g>
                    <g>
                        <path d="M34.1 0h-8.8c-.608 0-1.1.492-1.1 1.1 0 .608.492 1.1 1.1 1.1H33v7.7c0 .608.492 1.1 1.1 1.1.608 0 1.1-.492 1.1-1.1V1.1c0-.291-.115-.572-.322-.778C34.672.116 34.392 0 34.1 0zM35.2 34.1v-8.8c0-.608-.492-1.1-1.1-1.1-.608 0-1.1.492-1.1 1.1V33h-7.7c-.608 0-1.1.492-1.1 1.1 0 .608.492 1.1 1.1 1.1h8.8c.291 0 .572-.115.778-.322.206-.206.322-.486.322-.778zM1.1 35.2h8.8c.608 0 1.1-.492 1.1-1.1 0-.608-.492-1.1-1.1-1.1H2.2v-7.7c0-.608-.492-1.1-1.1-1.1-.608 0-1.1.492-1.1 1.1v8.8c0 .291.115.572.322.778.206.206.486.322.778.322zM0 1.1v8.8c0 .608.492 1.1 1.1 1.1.608 0 1.1-.492 1.1-1.1V2.2h7.7c.608 0 1.1-.492 1.1-1.1C11 .492 10.508 0 9.9 0H1.1C.492 0 0 .492 0 1.1zM17.6 26.4c-2.556.001-5.059-.741-7.2-2.14-.508-.332-.651-1.014-.318-1.523.332-.509 1.014-.652 1.523-.319 1.785 1.16 3.868 1.78 5.998 1.78 2.13 0 4.213-.62 5.997-1.78.51-.333 1.191-.19 1.524.319.333.509.19 1.19-.319 1.524-2.142 1.398-4.646 2.142-7.205 2.139zM11 14.3c-.608 0-1.1-.492-1.1-1.1V11c0-.608.492-1.1 1.1-1.1.608 0 1.1.492 1.1 1.1v2.2c0 .291-.115.572-.322.778-.206.206-.486.322-.778.322zM24.2 14.3c-.608 0-1.1-.492-1.1-1.1V11c0-.608.492-1.1 1.1-1.1.608 0 1.1.492 1.1 1.1v2.2c0 .291-.115.572-.322.778-.206.206-.486.322-.778.322zM15.95 19.393c-.608 0-1.1-.492-1.1-1.1 0-.608.492-1.1 1.1-1.1.291 0 .572-.115.778-.322.206-.206.322-.486.322-.778V13.2c0-.608.492-1.1 1.1-1.1.608 0 1.1.492 1.1 1.1v2.893c0 1.822-1.478 3.3-3.3 3.3z" transform="translate(-51 -287) translate(18 257) translate(33 30.5) translate(.3 .1)"/>
                    </g>
                </g>
            </g>
        </g>
    </g>
</svg>
